<?xml version="1.0" standalone="no"?>
<!DOCTYPE svg PUBLIC "-//W3C//DTD SVG 20010904//EN"
 "http://www.w3.org/TR/2001/REC-SVG-20010904/DTD/svg10.dtd">
<svg version="1.0" xmlns="http://www.w3.org/2000/svg"
 width="233.000000pt" height="233.000000pt" viewBox="0 0 233.000000 233.000000"
 preserveAspectRatio="xMidYMid meet">
<metadata>
Created by potrace 1.14, written by Peter Selinger 2001-2017
</metadata>
<g transform="translate(0.000000,233.000000) scale(0.100000,-0.100000)"
fill="#000000" stroke="none">
<path d="M849 1944 c-39 -20 -61 -50 -62 -82 -2 -27 -4 -29 -46 -31 -103 -3
-160 -76 -109 -138 10 -12 9 -17 -3 -27 -47 -36 -109 -146 -103 -183 1 -7 2
-22 3 -34 0 -11 14 -32 31 -47 32 -30 37 -50 26 -127 -3 -27 -8 -95 -11 -149
-3 -55 -7 -101 -9 -103 -2 -2 -13 -5 -24 -8 -63 -12 -115 -82 -116 -156 -1
-41 3 -51 29 -74 43 -38 97 -64 139 -67 20 -1 36 -6 36 -10 0 -30 120 -155
157 -164 13 -4 23 -9 23 -14 0 -6 40 -21 100 -38 8 -2 31 -5 50 -6 19 -1 41
-5 49 -10 10 -6 12 -5 7 2 -4 7 -2 12 3 12 6 0 11 -5 11 -11 0 -5 5 -7 10 -4
6 3 10 0 10 -7 0 -9 3 -9 10 2 8 12 10 12 10 1 0 -11 3 -11 15 -1 12 10 19 10
27 2 14 -14 92 -17 84 -4 -3 5 1 9 9 9 8 0 12 -4 10 -8 -3 -4 2 -9 10 -13 8
-3 17 0 21 6 5 7 2 8 -6 3 -9 -5 -11 -4 -6 4 4 6 13 8 19 4 26 -16 161 2 151
20 -5 9 -4 9 6 0 14 -13 25 -10 117 33 62 28 152 113 173 163 7 18 20 32 31
32 39 3 89 25 89 40 0 7 3 10 6 6 9 -9 56 36 69 67 29 67 -38 176 -110 179
-27 2 -35 6 -36 22 -8 134 -9 131 20 129 36 -2 53 6 47 22 -3 8 0 11 10 7 8
-3 14 1 15 11 1 9 2 22 3 29 1 6 -1 20 -6 29 -5 11 -1 28 12 50 34 58 18 102
-66 183 -31 30 -43 50 -48 80 -3 22 -10 41 -16 43 -5 2 -10 8 -10 14 0 6 -10
19 -22 30 -13 11 -38 33 -55 49 -18 16 -35 29 -38 29 -4 0 -13 7 -22 15 -8 8
-19 13 -24 10 -5 -4 -9 -2 -9 3 0 12 -55 45 -104 63 -30 11 -36 18 -36 42 0
22 -7 31 -33 42 -35 14 -53 15 -74 2 -7 -5 -16 -6 -21 -3 -4 2 -16 -2 -27 -10
-16 -12 -17 -16 -6 -23 9 -6 5 -8 -13 -8 -15 0 -29 4 -33 10 -4 6 -1 7 8 2 8
-5 5 1 -5 14 -11 12 -26 19 -33 17 -7 -3 -13 1 -13 10 0 8 -5 12 -10 9 -6 -4
-7 -11 -4 -17 5 -7 2 -8 -5 -3 -7 4 -22 -2 -36 -15 -20 -19 -26 -20 -44 -8
-12 7 -21 16 -21 21 0 4 -4 6 -9 2 -6 -3 -14 3 -20 12 -8 14 -11 15 -11 3 0
-12 -4 -10 -15 4 -15 20 -50 33 -39 15 8 -13 -10 -11 -25 4 -11 10 -14 10 -18
0 -3 -7 -9 -13 -14 -13 -6 0 -7 5 -4 10 7 12 7 12 -26 -6z"/>
<path d="M1095 460 c3 -5 8 -10 11 -10 2 0 4 5 4 10 0 6 -5 10 -11 10 -5 0 -7
-4 -4 -10z"/>
</g>
</svg>
